<?xml version="1.0" encoding="UTF-8"?>
<!DOCTYPE svg PUBLIC "-//W3C//DTD SVG 1.1//EN" "http://www.w3.org/Graphics/SVG/1.1/DTD/svg11.dtd">
<!-- Creator: CorelDRAW X8 -->
<svg xmlns="http://www.w3.org/2000/svg" xml:space="preserve" width="6in" height="6in" version="1.1" style="shape-rendering:geometricPrecision; text-rendering:geometricPrecision; image-rendering:optimizeQuality; fill-rule:evenodd; clip-rule:evenodd"
viewBox="0 0 6000 6000"
 xmlns:xlink="http://www.w3.org/1999/xlink">
 <defs>
  <style type="text/css">
   <![CDATA[
    .fil0 {fill:#4D4D4D;fill-rule:nonzero}
   ]]>
  </style>
 </defs>
 <g id="Layer_x0020_1">
  <metadata id="CorelCorpID_0Corel-Layer"/>
  <polygon class="fil0" points="1437,3214 1437,2785 1719,2785 1719,2820 1477,2820 1477,2977 1698,2977 1698,3011 1477,3011 1477,3179 1726,3179 1726,3214 "/>
  <path id="1" class="fil0" d="M2156 3074l39 0c-4,48 -20,85 -51,112 -30,27 -70,40 -121,40 -57,0 -103,-20 -137,-60 -33,-41 -50,-97 -50,-167 0,-70 17,-125 51,-165 34,-40 79,-60 137,-60 49,0 88,12 118,37 30,25 46,58 49,99l-39 0c-4,-31 -17,-56 -39,-74 -23,-18 -53,-27 -89,-27 -46,0 -82,16 -108,50 -26,33 -39,79 -39,139 0,61 13,108 39,142 27,35 63,52 110,52 38,0 68,-11 91,-31 23,-21 36,-50 39,-87z"/>
  <polygon id="2" class="fil0" points="2326,3214 2326,2785 2366,2785 2366,2971 2611,2971 2611,2785 2651,2785 2651,3214 2611,3214 2611,3007 2366,3007 2366,3214 "/>
  <path id="3" class="fil0" d="M2825 3000c0,59 14,105 42,140 28,34 66,51 114,51 48,0 86,-17 114,-51 29,-34 43,-81 43,-140 0,-59 -14,-106 -43,-140 -28,-35 -66,-52 -114,-52 -47,0 -85,18 -113,52 -29,35 -43,82 -43,140zm-40 0c0,-70 17,-125 53,-165 35,-41 83,-61 143,-61 61,0 109,20 144,61 36,40 53,95 53,165 0,70 -17,125 -53,165 -35,41 -83,61 -144,61 -60,0 -108,-20 -143,-61 -36,-40 -53,-95 -53,-165z"/>
  <polygon id="4" class="fil0" points="3311,3214 3311,2785 3352,2785 3352,3179 3571,3179 3571,3214 "/>
  <polygon id="5" class="fil0" points="3680,3214 3680,2785 3721,2785 3721,3214 "/>
  <polygon id="6" class="fil0" points="3976,3214 3827,2785 3868,2785 3998,3164 4128,2785 4167,2785 4019,3214 "/>
  <polygon id="7" class="fil0" points="4372,3214 4223,2785 4263,2785 4393,3164 4523,2785 4563,2785 4414,3214 "/>
 </g>
</svg>
